HIERARCHY
ROOT Hips
{
  OFFSET -10.5161 93.4497 -11.0633
  CHANNELS 6 Xposition Yposition Zposition Zrotation Xrotation Yrotation
  JOINT LeftUpLeg
  {
    OFFSET 8.64259 1.95398 -2.38835
    CHANNELS 6 Xposition Yposition Zposition Zrotation Xrotation Yrotation
    JOINT LeftLeg
    {
      OFFSET 43.7702 0 0
      CHANNELS 6 Xposition Yposition Zposition Zrotation Xrotation Yrotation
      JOINT LeftFoot
      {
        OFFSET 40.6238 0 0
        CHANNELS 6 Xposition Yposition Zposition Zrotation Xrotation Yrotation
        JOINT LeftToeBase
        {
          OFFSET 12.7242 0 0
          CHANNELS 6 Xposition Yposition Zposition Zrotation Xrotation Yrotation
          End Site
          {
            OFFSET 0 0 0
          }
        }
      }
    }
  }
  JOINT RightUpLeg
  {
    OFFSET -8.2249 1.95398 -2.59336
    CHANNELS 6 Xposition Yposition Zposition Zrotation Xrotation Yrotation
    JOINT RightLeg
    {
      OFFSET 43.5653 0 0
      CHANNELS 6 Xposition Yposition Zposition Zrotation Xrotation Yrotation
      JOINT RightFoot
      {
        OFFSET 40.6238 0 0
        CHANNELS 6 Xposition Yposition Zposition Zrotation Xrotation Yrotation
        JOINT RightToeBase
        {
          OFFSET 12.7242 0 0
          CHANNELS 6 Xposition Yposition Zposition Zrotation Xrotation Yrotation
          End Site
          {
            OFFSET 0 0 0
          }
        }
      }
    }
  }
  JOINT Spine
  {
    OFFSET 0.165834 0.87714 6.61349
    CHANNELS 6 Xposition Yposition Zposition Zrotation Xrotation Yrotation
    JOINT Spine1
    {
      OFFSET 7.38963 1.71661e-005 0
      CHANNELS 6 Xposition Yposition Zposition Zrotation Xrotation Yrotation
      JOINT Spine2
      {
        OFFSET 11.9445 1.14441e-005 0
        CHANNELS 6 Xposition Yposition Zposition Zrotation Xrotation Yrotation
        JOINT Spine3
        {
          OFFSET 14.7254 4.19617e-005 0
          CHANNELS 6 Xposition Yposition Zposition Zrotation Xrotation Yrotation
          JOINT Spine4
          {
            OFFSET 10.9679 0 0
            CHANNELS 6 Xposition Yposition Zposition Zrotation Xrotation Yrotation
            JOINT RightShoulder
            {
              OFFSET 2.46616 -1.6653 3.69651
              CHANNELS 6 Xposition Yposition Zposition Zrotation Xrotation Yrotation
              JOINT RightArm
              {
                OFFSET 13.0012 0 0
                CHANNELS 6 Xposition Yposition Zposition Zrotation Xrotation Yrotation
                JOINT RightForeArm
                {
                  OFFSET 28.7848 1.52588e-005 0
                  CHANNELS 6 Xposition Yposition Zposition Zrotation Xrotation Yrotation
                  JOINT RightHand
                  {
                    OFFSET 26.5688 1.52588e-005 0
                    CHANNELS 6 Xposition Yposition Zposition Zrotation Xrotation Yrotation
                    JOINT RightHandMiddle1
                    {
                      OFFSET 8.03675 -0.886581 0.727868
                      CHANNELS 6 Xposition Yposition Zposition Zrotation Xrotation Yrotation
                      JOINT RightHandMiddle2
                      {
                        OFFSET 2.78833 0 0
                        CHANNELS 6 Xposition Yposition Zposition Zrotation Xrotation Yrotation
                        JOINT RightHandMiddle3
                        {
                          OFFSET 2.41155 0 0
                          CHANNELS 6 Xposition Yposition Zposition Zrotation Xrotation Yrotation
                          End Site
                          {
                            OFFSET 0 0 0
                          }
                        }
                      }
                    }
                    JOINT RightHandRing1
                    {
                      OFFSET 7.97966 -0.886765 -1.00486
                      CHANNELS 6 Xposition Yposition Zposition Zrotation Xrotation Yrotation
                      JOINT RightHandRing2
                      {
                        OFFSET 2.86368 0 0
                        CHANNELS 6 Xposition Yposition Zposition Zrotation Xrotation Yrotation
                        JOINT RightHandRing3
                        {
                          OFFSET 2.11079 0 0
                          CHANNELS 6 Xposition Yposition Zposition Zrotation Xrotation Yrotation
                          End Site
                          {
                            OFFSET 0 0 0
                          }
                        }
                      }
                    }
                    JOINT RightHandPinky1
                    {
                      OFFSET 8.03707 -0.887528 -2.60696
                      CHANNELS 6 Xposition Yposition Zposition Zrotation Xrotation Yrotation
                      JOINT RightHandPinky2
                      {
                        OFFSET 1.84627 0 0
                        CHANNELS 6 Xposition Yposition Zposition Zrotation Xrotation Yrotation
                        JOINT RightHandPinky3
                        {
                          OFFSET 1.88434 0 0
                          CHANNELS 6 Xposition Yposition Zposition Zrotation Xrotation Yrotation
                          End Site
                          {
                            OFFSET 0 0 0
                          }
                        }
                      }
                    }
                    JOINT RightHandIndex1
                    {
                      OFFSET 7.92262 -0.885498 2.31175
                      CHANNELS 6 Xposition Yposition Zposition Zrotation Xrotation Yrotation
                      JOINT RightHandIndex2
                      {
                        OFFSET 2.63761 0 0
                        CHANNELS 6 Xposition Yposition Zposition Zrotation Xrotation Yrotation
                        JOINT RightHandIndex3
                        {
                          OFFSET 2.16656 0 0
                          CHANNELS 6 Xposition Yposition Zposition Zrotation Xrotation Yrotation
                          End Site
                          {
                            OFFSET 0 0 0
                          }
                        }
                      }
                    }
                    JOINT RightHandThumb1
                    {
                      OFFSET 3.4769 0.0597992 2.88789
                      CHANNELS 6 Xposition Yposition Zposition Zrotation Xrotation Yrotation
                      JOINT RightHandThumb2
                      {
                        OFFSET 2.77686 9.72748e-005 -1.52588e-005
                        CHANNELS 6 Xposition Yposition Zposition Zrotation Xrotation Yrotation
                        JOINT RightHandThumb3
                        {
                          OFFSET 2.42058 -9.15528e-005 0
                          CHANNELS 6 Xposition Yposition Zposition Zrotation Xrotation Yrotation
                          End Site
                          {
                            OFFSET 0 0 0
                          }
                        }
                      }
                    }
                  }
                }
              }
            }
            JOINT LeftShoulder
            {
              OFFSET 2.38034 -1.29275 -3.7523
              CHANNELS 6 Xposition Yposition Zposition Zrotation Xrotation Yrotation
              JOINT LeftArm
              {
                OFFSET 16.3182 6.10352e-005 0
                CHANNELS 6 Xposition Yposition Zposition Zrotation Xrotation Yrotation
                JOINT LeftForeArm
                {
                  OFFSET 27.0901 0 0
                  CHANNELS 6 Xposition Yposition Zposition Zrotation Xrotation Yrotation
                  JOINT LeftHand
                  {
                    OFFSET 24.5451 1.52588e-005 0
                    CHANNELS 6 Xposition Yposition Zposition Zrotation Xrotation Yrotation
                    JOINT LeftHandMiddle1
                    {
                      OFFSET 9.21802 0.665817 0.545532
                      CHANNELS 6 Xposition Yposition Zposition Zrotation Xrotation Yrotation
                      JOINT LeftHandMiddle2
                      {
                        OFFSET 2.66255 0 0
                        CHANNELS 6 Xposition Yposition Zposition Zrotation Xrotation Yrotation
                        JOINT LeftHandMiddle3
                        {
                          OFFSET 2.2804 0 0
                          CHANNELS 6 Xposition Yposition Zposition Zrotation Xrotation Yrotation
                          End Site
                          {
                            OFFSET 0 0 0
                          }
                        }
                      }
                    }
                    JOINT LeftHandRing1
                    {
                      OFFSET 9.24775 0.665192 -1.1267
                      CHANNELS 6 Xposition Yposition Zposition Zrotation Xrotation Yrotation
                      JOINT LeftHandRing2
                      {
                        OFFSET 2.47041 0 -1.52588e-005
                        CHANNELS 6 Xposition Yposition Zposition Zrotation Xrotation Yrotation
                        JOINT LeftHandRing3
                        {
                          OFFSET 2.2054 0 0
                          CHANNELS 6 Xposition Yposition Zposition Zrotation Xrotation Yrotation
                          End Site
                          {
                            OFFSET 0 0 0
                          }
                        }
                      }
                    }
                    JOINT LeftHandPinky1
                    {
                      OFFSET 9.35384 0.66301 -2.72332
                      CHANNELS 6 Xposition Yposition Zposition Zrotation Xrotation Yrotation
                      JOINT LeftHandPinky2
                      {
                        OFFSET 1.63407 0 0
                        CHANNELS 6 Xposition Yposition Zposition Zrotation Xrotation Yrotation
                        JOINT LeftHandPinky3
                        {
                          OFFSET 1.71176 0 0
                          CHANNELS 6 Xposition Yposition Zposition Zrotation Xrotation Yrotation
                          End Site
                          {
                            OFFSET 0 0 0
                          }
                        }
                      }
                    }
                    JOINT LeftHandIndex1
                    {
                      OFFSET 8.73161 0.675903 2.06801
                      CHANNELS 6 Xposition Yposition Zposition Zrotation Xrotation Yrotation
                      JOINT LeftHandIndex2
                      {
                        OFFSET 2.66689 0 0
                        CHANNELS 6 Xposition Yposition Zposition Zrotation Xrotation Yrotation
                        JOINT LeftHandIndex3
                        {
                          OFFSET 2.12946 0 1.52588e-005
                          CHANNELS 6 Xposition Yposition Zposition Zrotation Xrotation Yrotation
                          End Site
                          {
                            OFFSET 0 0 0
                          }
                        }
                      }
                    }
                    JOINT LeftHandThumb1
                    {
                      OFFSET 4.96735 -0.62265 3.39586
                      CHANNELS 6 Xposition Yposition Zposition Zrotation Xrotation Yrotation
                      JOINT LeftHandThumb2
                      {
                        OFFSET 2.15386 1.52588e-005 0
                        CHANNELS 6 Xposition Yposition Zposition Zrotation Xrotation Yrotation
                        JOINT LeftHandThumb3
                        {
                          OFFSET 2.19511 -3.43323e-005 1.52588e-005
                          CHANNELS 6 Xposition Yposition Zposition Zrotation Xrotation Yrotation
                          End Site
                          {
                            OFFSET 0 0 0
                          }
                        }
                      }
                    }
                  }
                }
              }
            }
            JOINT Neck
            {
              OFFSET 5.0226 -0.0266342 0
              CHANNELS 6 Xposition Yposition Zposition Zrotation Xrotation Yrotation
              JOINT Head
              {
                OFFSET 6.69364 2.86102e-005 0
                CHANNELS 6 Xposition Yposition Zposition Zrotation Xrotation Yrotation
                End Site
                {
                  OFFSET 0 0 0
                }
              }
            }
          }
        }
      }
    }
  }
}
MOTION
Frames:	4
Frame Time:	0.0333333
108.28 87.2912 92.9151 89.0722 46.3309 92.8199 8.64259 1.95398 -2.38835 -169.134 16.4784 97.9289 43.7702 7.03335e-006 -2.84217e-014 -16.9248 -45.3152 -12.7208 40.6238 1.43051e-006 9.53674e-007 78.4418 16.1266 7.01692 12.7242 2.38419e-006 9.53674e-007 28.7808 6.25319e-006 6.60086e-006 -8.2249 1.95398 -2.59336 178.625 19.9132 94.1486 43.5653 7.27177e-006 0 -48.6971 21.9674 1.46658 40.6238 2.38419e-006 9.53674e-007 77.6186 1.29848 0.253425 12.7242 -4.76837e-007 2.84217e-014 28.7808 1.40891e-005 2.62054e-005 0.165834 0.87714 6.61349 1.96645 6.66077 -93.766 7.38963 1.71661e-005 -9.72809e-008 13.3886 1.93265 -1.50013 11.9445 1.14441e-005 6.65396e-008 1.71812 1.86559 -1.58358 14.7254 4.19617e-005 8.195e-008 -20.8259 2.29101 -0.850741 10.9679 -9.53674e-006 5.82672e-008 -0.813223 2.291 -0.850754 2.46616 -1.6653 3.69651 93.7752 -35.6985 -97.7785 13.0012 0 -7.10543e-015 -14.452 46.1491 -52.2992 28.7848 1.52588e-005 -1.19209e-007 176.925 -18.398 -179.998 26.5688 1.52588e-005 4.76837e-007 -88.4867 36.5453 -42.9491 8.03675 -0.886581 0.727868 -89.4039 88.9709 89.0936 2.78833 2.38419e-007 0 -0.0604871 1.10183e-005 1.81754e-006 2.41155 0 -1.42109e-014 -0.0639212 -4.18864e-006 -2.67934e-006 7.97966 -0.886765 -1.00486 -89.3944 88.9811 89.0841 2.86368 0 0 -1.15742 1.10271e-008 4.42724e-008 2.11079 0 0 2.576 3.32463e-006 -7.94678e-007 8.03707 -0.887528 -2.60696 -88.8572 89.3579 88.547 1.84627 -1.42109e-014 0 -1.14578 -6.55836e-006 1.93578e-006 1.88434 1.42109e-014 1.42109e-014 1.14577 -2.24855e-007 -8.63968e-007 7.92262 -0.885498 2.31175 -89.4226 88.9487 89.1123 2.63761 4.76837e-007 0 0.409285 1.5243e-005 0.000508173 2.16656 -2.38419e-007 0 -0.6366 -1.72714e-005 1.29435e-006 3.4769 0.0597992 2.88789 104.364 40.5023 -88.8246 2.77686 9.72748e-005 -1.52588e-005 -7.66903 0.186186 -1.35045 2.42058 -9.15528e-005 0 -11.2634 -7.22298e-006 6.48223e-005 2.38034 -1.29275 -3.7523 -117.658 -62.1411 45.8718 16.3182 6.10352e-005 1.19209e-007 -17.5106 -16.7331 -7.0891 27.0901 0 7.10543e-015 -4.35096 -20.9611 -20.0574 24.5451 1.52588e-005 1.42109e-014 -32.0486 -7.12597 21.7609 9.21802 0.665817 0.545532 -91.1873 -87.8289 -89.9988 2.66255 0 -2.84217e-014 3.40888 2.29958e-005 0.00354939 2.2804 0 0 -0.954863 -2.79657e-005 -3.16951e-006 9.24775 0.665192 -1.1267 -91.1871 -89.4015 -89.9985 2.47041 -4.76837e-007 -1.52588e-005 2.85637 -7.72567e-006 0.00293899 2.2054 -7.10543e-015 0 -3.16844 1.10282e-005 1.19818e-006 9.35384 0.66301 -2.72332 88.8084 -89.717 89.9969 1.63407 -4.76837e-007 0 2.5448 3.75963e-006 0.00267268 1.71176 0 0 -2.54482 -1.12589e-005 -2.56776e-006 8.73161 0.675903 2.06801 -91.1883 -86.1973 -89.9998 2.66689 -9.53674e-007 0 6.13104 -4.63166e-007 0.00650749 2.12946 1.04308e-007 1.52588e-005 -2.04543 -7.31752e-006 7.4679e-007 4.96735 -0.62265 3.39586 -101.949 -40.7242 -90.0694 2.15386 1.52588e-005 0 10.0172 6.82346e-007 -2.98543e-006 2.19511 -3.43323e-005 1.52588e-005 -2.66977 -1.80045e-005 -3.55914e-007 5.0226 -0.0266342 -9.09495e-013 22.0221 -0.147866 52.6568 6.69364 2.86102e-005 -1.09447e-007 10.0245 -19.904 -20.0753 
108.612 87.2655 91.2504 89.1404 48.0308 92.614 8.64259 1.95398 -2.38835 -169.263 15.9956 97.0103 43.7702 7.03335e-006 0 -15.7487 -42.5557 -11.5769 40.6238 1.43051e-006 9.53674e-007 74.766 22.1261 10.3177 12.7242 2.38419e-006 9.53674e-007 28.7808 6.25319e-006 6.60086e-006 -8.2249 1.95398 -2.59336 178.72 18.4185 93.486 43.5653 7.27177e-006 0 -48.199 23.8667 1.68418 40.6238 2.38419e-006 9.53674e-007 77.9741 3.23594 1.03323 12.7242 -4.76837e-007 0 28.7808 1.40891e-005 2.62054e-005 0.165834 0.87714 6.61349 2.08108 6.6314 -93.9511 7.38963 1.71661e-005 -9.72809e-008 13.4284 2.13017 -1.88924 11.9445 1.14441e-005 6.65395e-008 1.75774 2.04496 -1.98115 14.7254 4.19617e-005 8.195e-008 -20.7864 2.59941 -1.16154 10.9679 -9.53674e-006 5.82672e-008 -0.7738 2.5994 -1.16155 2.46616 -1.6653 3.69651 93.8381 -38.0095 -97.1512 13.0012 2.84217e-014 0 -12.0784 41.909 -46.6799 28.7848 1.52588e-005 -1.19209e-007 176.201 -2.12299 -179.998 26.5688 1.52588e-005 4.76837e-007 -92.3082 23.7866 -28.0766 8.03675 -0.886581 0.727868 -89.4039 88.9709 89.0936 2.78833 2.38419e-007 -2.84217e-014 -0.0604871 1.10183e-005 1.81754e-006 2.41155 0 0 -0.0639212 -4.18864e-006 -2.67934e-006 7.97966 -0.886765 -1.00486 -89.3944 88.9811 89.0841 2.86368 1.42109e-014 2.84217e-014 -1.15742 1.10271e-008 4.42724e-008 2.11079 -1.42109e-014 0 2.576 3.32463e-006 -7.94678e-007 8.03707 -0.887528 -2.60696 -88.8572 89.3579 88.547 1.84627 0 -2.84217e-014 -1.14578 -6.55836e-006 1.93578e-006 1.88434 0 2.84217e-014 1.14577 -2.24855e-007 -8.63968e-007 7.92262 -0.885498 2.31175 -89.4226 88.9487 89.1123 2.63761 4.76837e-007 0 0.409285 1.5243e-005 0.000508173 2.16656 -2.38419e-007 0 -0.6366 -1.72714e-005 1.29435e-006 3.4769 0.0597992 2.88789 104.364 40.5023 -88.8246 2.77686 9.72748e-005 -1.52588e-005 -7.66903 0.186186 -1.35045 2.42058 -9.15528e-005 0 -11.2634 -7.22298e-006 6.48223e-005 2.38034 -1.29275 -3.7523 -119.159 -63.1884 44.5649 16.3182 6.10352e-005 1.19209e-007 -18.9702 -15.9804 -6.04362 27.0901 1.42109e-014 -1.42109e-014 -5.35749 -22.33 -21.4907 24.5451 1.52588e-005 -7.10543e-015 -30.4206 -7.35464 24.1527 9.21802 0.665817 0.545532 -91.1873 -87.8289 -89.9988 2.66255 -7.10543e-015 -2.84217e-014 3.40888 2.29958e-005 0.00354939 2.2804 7.10543e-015 0 -0.954863 -2.79657e-005 -3.16951e-006 9.24775 0.665192 -1.1267 -91.1871 -89.4015 -89.9985 2.47041 -4.76837e-007 -1.52588e-005 2.85637 -7.72567e-006 0.00293899 2.2054 -1.42109e-014 0 -3.16844 1.10282e-005 1.19818e-006 9.35384 0.66301 -2.72332 88.8084 -89.717 89.9969 1.63407 -4.76837e-007 0 2.5448 3.75963e-006 0.00267268 1.71176 0 0 -2.54482 -1.12589e-005 -2.56776e-006 8.73161 0.675903 2.06801 -91.1883 -86.1973 -89.9998 2.66689 -9.53674e-007 -2.84217e-014 6.13104 -4.63166e-007 0.00650749 2.12946 1.04308e-007 1.52588e-005 -2.04543 -7.31752e-006 7.4679e-007 4.96735 -0.62265 3.39586 -101.949 -40.7242 -90.0694 2.15386 1.52588e-005 -2.84217e-014 10.0172 6.82346e-007 -2.98543e-006 2.19511 -3.43323e-005 1.52588e-005 -2.66977 -1.80045e-005 -3.55914e-007 5.0226 -0.0266342 -9.09495e-013 20 -0.511994 55.1952 6.69364 2.86102e-005 -1.09447e-007 9.69655 -20.2275 -21.0196 
108.895 87.1688 89.4272 88.2453 49.984 93.2459 8.64259 1.95398 -2.38835 -169.952 15.528 95.9467 43.7702 7.03335e-006 0 -15.6008 -42.7408 -11.2772 40.6238 1.43051e-006 9.53674e-007 76.8154 21.8359 9.77968 12.7242 2.38419e-006 9.53674e-007 28.7808 6.25319e-006 6.60086e-006 -8.2249 1.95398 -2.59336 178.766 17.4623 92.9053 43.5653 7.27177e-006 0 -47.6355 25.9399 1.9425 40.6238 2.38419e-006 9.53674e-007 78.3282 5.39689 1.88899 12.7242 -4.76837e-007 0 28.7808 1.40891e-005 2.62054e-005 0.165834 0.87714 6.61349 2.18666 6.55141 -94.0587 7.38963 1.71661e-005 -9.72809e-008 13.5808 2.32965 -2.02284 11.9445 1.14441e-005 6.65395e-008 1.91023 2.23841 -2.12342 14.7254 4.19617e-005 8.195e-008 -20.6361 2.82967 -1.22884 10.9679 -9.53674e-006 5.82672e-008 -0.623418 2.82968 -1.22886 2.46616 -1.6653 3.69651 93.6662 -42.1464 -96.5977 13.0012 2.84217e-014 0 -6.32341 35.5069 -40.4721 28.7848 1.52588e-005 -1.19209e-007 174.916 26.1353 -179.773 26.5688 1.52588e-005 4.76837e-007 -83.9441 0.697885 -5.89802 8.03675 -0.886581 0.727868 -89.4039 88.9709 89.0936 2.78833 2.38419e-007 0 -0.0604871 1.10183e-005 1.81754e-006 2.41155 0 0 -0.0639212 -4.18864e-006 -2.67934e-006 7.97966 -0.886765 -1.00486 -89.3944 88.9811 89.0841 2.86368 0 -2.84217e-014 -1.15742 1.10271e-008 4.42724e-008 2.11079 -7.10543e-015 0 2.576 3.32463e-006 -7.94678e-007 8.03707 -0.887528 -2.60696 -88.8572 89.3579 88.547 1.84627 7.10543e-015 0 -1.14578 -6.55836e-006 1.93578e-006 1.88434 7.10543e-015 0 1.14577 -2.24855e-007 -8.63968e-007 7.92262 -0.885498 2.31175 -89.4226 88.9487 89.1123 2.63761 4.76837e-007 0 0.409285 1.5243e-005 0.000508173 2.16656 -2.38419e-007 5.68434e-014 -0.6366 -1.72714e-005 1.29435e-006 3.4769 0.0597992 2.88789 104.364 40.5023 -88.8246 2.77686 9.72748e-005 -1.52588e-005 -7.66903 0.186186 -1.35045 2.42058 -9.15528e-005 0 -11.2634 -7.22298e-006 6.48223e-005 2.38034 -1.29275 -3.7523 -118.654 -63.3449 45.2438 16.3182 6.10352e-005 1.19209e-007 -20.382 -15.2269 -5.84004 27.0901 0 7.10543e-015 -6.88361 -26.1362 -22.1035 24.5451 1.52588e-005 0 -27.9611 -7.37142 26.9481 9.21802 0.665817 0.545532 -91.1873 -87.8289 -89.9988 2.66255 0 0 3.40888 2.29958e-005 0.00354939 2.2804 0 -2.84217e-014 -0.954863 -2.79657e-005 -3.16951e-006 9.24775 0.665192 -1.1267 -91.1871 -89.4015 -89.9985 2.47041 -4.76837e-007 -1.52588e-005 2.85637 -7.72567e-006 0.00293899 2.2054 -7.10543e-015 0 -3.16844 1.10282e-005 1.19818e-006 9.35384 0.66301 -2.72332 88.8084 -89.717 89.9969 1.63407 -4.76837e-007 0 2.5448 3.75963e-006 0.00267268 1.71176 0 0 -2.54482 -1.12589e-005 -2.56776e-006 8.73161 0.675903 2.06801 -91.1883 -86.1973 -89.9998 2.66689 -9.53674e-007 0 6.13104 -4.63166e-007 0.00650749 2.12946 1.04308e-007 1.52588e-005 -2.04543 -7.31752e-006 7.4679e-007 4.96735 -0.62265 3.39586 -101.949 -40.7242 -90.0694 2.15386 1.52588e-005 0 10.0172 6.82346e-007 -2.98543e-006 2.19511 -3.43323e-005 1.52588e-005 -2.66977 -1.80045e-005 -3.55914e-007 5.0226 -0.0266342 -9.09495e-013 18.7797 -0.936542 55.0145 6.69364 2.86102e-005 -1.09447e-007 9.23325 -19.8541 -20.7666 
109.136 87.297 87.5057 87.8518 52.0726 93.4663 8.64259 1.95398 -2.38835 -170.379 14.6393 94.8961 43.7702 7.03335e-006 0 -14.3345 -39.8307 -9.86422 40.6238 1.43051e-006 9.53674e-007 76.8721 23.0172 10.2993 12.7242 2.38419e-006 9.53674e-007 28.7808 6.25319e-006 6.60086e-006 -8.2249 1.95398 -2.59336 178.883 15.7823 92.2755 43.5653 7.27177e-006 -2.84217e-014 -46.4342 28.1804 2.22376 40.6238 2.38419e-006 9.53674e-007 78.0475 7.4244 2.73512 12.7242 -4.76837e-007 0 28.7808 1.40891e-005 2.62054e-005 0.165834 0.87714 6.61349 2.20226 6.48757 -94.065 7.38963 1.71661e-005 -9.72809e-008 13.7155 2.45318 -2.25528 11.9445 1.14441e-005 6.65395e-008 2.04468 2.3513 -2.3608 14.7254 4.19617e-005 8.195e-008 -20.5016 3.01924 -1.4153 10.9679 -9.53674e-006 5.82672e-008 -0.488935 3.01923 -1.41532 2.46616 -1.6653 3.69651 93.4826 -44.1361 -96.5412 13.0012 -2.84217e-014 7.10543e-015 3.24849 27.4879 -33.1903 28.7848 1.52588e-005 -1.19209e-007 172.935 48.584 -178.197 26.5688 1.52588e-005 4.76837e-007 -56.2508 -8.6558 10.751 8.03675 -0.886581 0.727868 -89.4039 88.9709 89.0936 2.78833 2.38419e-007 0 -0.0604871 1.10183e-005 1.81754e-006 2.41155 2.84217e-014 -2.84217e-014 -0.0639212 -4.18864e-006 -2.67934e-006 7.97966 -0.886765 -1.00486 -89.3944 88.9811 89.0841 2.86368 1.42109e-014 -2.84217e-014 -1.15742 1.10271e-008 4.42724e-008 2.11079 -1.42109e-014 0 2.576 3.32463e-006 -7.94678e-007 8.03707 -0.887528 -2.60696 -88.8572 89.3579 88.547 1.84627 -1.42109e-014 0 -1.14578 -6.55836e-006 1.93578e-006 1.88434 1.42109e-014 0 1.14577 -2.24855e-007 -8.63968e-007 7.92262 -0.885498 2.31175 -89.4226 88.9487 89.1123 2.63761 4.76837e-007 0 0.409285 1.5243e-005 0.000508173 2.16656 -2.38419e-007 -2.84217e-014 -0.6366 -1.72714e-005 1.29435e-006 3.4769 0.0597992 2.88789 104.364 40.5023 -88.8246 2.77686 9.72748e-005 -1.52588e-005 -7.66903 0.186186 -1.35045 2.42058 -9.15528e-005 0 -11.2634 -7.22298e-006 6.48223e-005 2.38034 -1.29275 -3.7523 -118.957 -63.9827 45.1839 16.3182 6.10352e-005 1.19209e-007 -21.0538 -14.8816 -5.74316 27.0901 -1.42109e-014 -1.42109e-014 -8.56467 -31.3237 -22.1399 24.5451 1.52588e-005 3.55271e-015 -25.2175 -7.09775 29.3718 9.21802 0.665817 0.545532 -91.1873 -87.8289 -89.9988 2.66255 -7.10543e-015 0 3.40888 2.29958e-005 0.00354939 2.2804 0 0 -0.954863 -2.79657e-005 -3.16951e-006 9.24775 0.665192 -1.1267 -91.1871 -89.4015 -89.9985 2.47041 -4.76837e-007 -1.52588e-005 2.85637 -7.72567e-006 0.00293899 2.2054 7.10543e-015 0 -3.16844 1.10282e-005 1.19818e-006 9.35384 0.66301 -2.72332 88.8084 -89.717 89.9969 1.63407 -4.76837e-007 -2.84217e-014 2.5448 3.75963e-006 0.00267268 1.71176 1.42109e-014 2.84217e-014 -2.54482 -1.12589e-005 -2.56776e-006 8.73161 0.675903 2.06801 -91.1883 -86.1973 -89.9998 2.66689 -9.53674e-007 0 6.13104 -4.63166e-007 0.00650749 2.12946 1.04308e-007 1.52588e-005 -2.04543 -7.31752e-006 7.4679e-007 4.96735 -0.62265 3.39586 -101.949 -40.7242 -90.0694 2.15386 1.52588e-005 0 10.0172 6.82346e-007 -2.98543e-006 2.19511 -3.43323e-005 1.52588e-005 -2.66977 -1.80045e-005 -3.55914e-007 5.0226 -0.0266342 -9.23706e-013 17.1362 -1.18128 54.786 6.69364 2.86102e-005 -1.09447e-007 9.19492 -19.214 -20.6066 
